<?xml version="1.0" standalone="no"?>
<!DOCTYPE svg PUBLIC "-//W3C//DTD SVG 20010904//EN"
 "http://www.w3.org/TR/2001/REC-SVG-20010904/DTD/svg10.dtd">
<svg version="1.0" xmlns="http://www.w3.org/2000/svg"
 width="788.000000pt" height="788.000000pt" viewBox="0 0 788.000000 788.000000"
 preserveAspectRatio="xMidYMid meet">
<metadata>
Created by potrace 1.14, written by Peter Selinger 2001-2017
</metadata>
<g transform="translate(0.000000,788.000000) scale(0.100000,-0.100000)"
fill="#000000" stroke="none">
<path d="M3985 7857 c-22 -12 -42 -24 -45 -27 -3 -3 -18 -12 -35 -20 -16 -8
-42 -22 -57 -32 -14 -10 -33 -18 -42 -18 -9 0 -16 -4 -16 -8 0 -4 -37 -27 -82
-51 -114 -59 -162 -85 -168 -91 -3 -3 -30 -18 -60 -34 -30 -15 -68 -35 -85
-45 -16 -10 -75 -41 -130 -71 -55 -29 -104 -56 -110 -60 -5 -4 -50 -29 -100
-55 -49 -26 -116 -63 -147 -81 -32 -18 -58 -30 -58 -26 0 4 -4 2 -8 -4 -4 -6
-47 -32 -97 -59 -49 -27 -104 -56 -120 -65 -17 -10 -66 -36 -110 -60 -44 -24
-95 -52 -115 -63 -19 -11 -60 -33 -90 -50 -30 -16 -84 -46 -120 -65 -36 -19
-83 -45 -105 -56 -22 -12 -42 -23 -45 -26 -3 -3 -23 -15 -45 -26 -22 -12 -71
-38 -110 -59 -38 -21 -86 -47 -105 -57 -19 -10 -57 -31 -85 -46 -93 -52 -220
-120 -265 -144 -25 -13 -46 -26 -48 -30 -2 -5 -7 -8 -12 -8 -4 0 -36 -16 -69
-34 -34 -19 -61 -32 -61 -28 0 4 -4 2 -8 -4 -4 -7 -32 -25 -62 -41 -30 -17
-89 -48 -130 -71 -41 -22 -95 -51 -120 -64 -25 -12 -47 -25 -50 -28 -3 -3 -16
-11 -30 -17 -14 -7 -70 -37 -125 -68 -55 -30 -124 -68 -152 -82 l-53 -27 0
-1987 0 -1987 78 -44 c118 -67 127 -73 132 -78 6 -6 84 -49 117 -64 13 -6 23
-14 23 -18 0 -5 4 -8 9 -8 8 0 136 -71 181 -100 8 -6 24 -14 35 -20 11 -5 43
-23 70 -40 28 -17 58 -33 68 -37 9 -3 17 -9 17 -14 0 -5 4 -9 9 -9 5 0 92 -48
193 -106 101 -58 201 -116 223 -129 22 -12 96 -55 163 -94 68 -39 128 -71 133
-71 5 0 9 -4 9 -8 0 -4 19 -18 43 -30 23 -12 60 -32 82 -45 78 -44 178 -102
224 -129 25 -16 57 -33 71 -40 14 -7 27 -15 30 -18 3 -4 37 -24 75 -45 39 -21
72 -42 73 -47 2 -4 12 -8 22 -8 10 0 21 -4 24 -9 3 -5 87 -55 186 -111 99 -56
183 -106 186 -111 3 -5 10 -7 15 -4 5 4 9 1 9 -4 0 -6 4 -11 9 -11 5 0 55 -27
111 -60 56 -33 103 -60 105 -60 2 0 24 -13 48 -30 25 -16 48 -30 51 -30 3 0
35 -18 71 -40 36 -22 68 -40 70 -40 3 0 22 -11 43 -23 20 -13 57 -35 82 -49
25 -14 84 -48 132 -77 48 -28 91 -51 97 -51 5 0 11 -3 13 -7 2 -5 26 -20 54
-35 l51 -28 144 82 c79 46 146 86 147 90 2 5 12 8 23 8 10 0 19 5 19 10 0 6 5
10 11 10 6 0 23 8 37 19 28 19 131 77 169 95 13 6 23 14 23 19 0 4 4 7 10 7 5
0 33 14 62 31 29 18 69 41 88 52 159 89 266 153 268 159 2 5 8 8 13 8 5 0 95
50 200 110 105 61 194 110 199 110 5 0 10 3 12 8 2 4 73 47 158 96 85 49 198
113 250 143 52 31 111 64 130 75 19 11 107 62 195 113 413 240 546 315 555
315 5 0 10 4 10 8 0 5 23 19 50 32 28 13 50 27 50 32 0 4 5 8 11 8 5 0 112 59
237 132 125 73 238 138 252 146 14 8 43 24 65 36 l40 22 3 772 c2 730 1 772
-15 773 -10 0 -185 1 -389 2 l-371 2 1 -533 c1 -293 -2 -541 -5 -551 -6 -16
-210 -141 -230 -141 -5 0 -9 -4 -9 -10 0 -5 -4 -10 -10 -10 -5 0 -47 -23 -94
-50 -47 -28 -89 -50 -95 -50 -5 0 -11 -4 -13 -8 -3 -8 -87 -57 -228 -135 -30
-16 -62 -35 -70 -41 -8 -6 -24 -16 -35 -22 -69 -38 -118 -66 -154 -88 -22 -14
-43 -26 -46 -26 -2 0 -34 -18 -70 -40 -36 -22 -70 -40 -75 -40 -6 0 -10 -4
-10 -8 0 -4 -15 -15 -32 -23 -18 -9 -94 -51 -168 -94 -74 -43 -155 -90 -180
-104 -25 -13 -48 -29 -51 -34 -3 -5 -8 -7 -10 -6 -2 2 -38 -17 -79 -41 -41
-23 -88 -50 -105 -59 -16 -9 -32 -18 -35 -21 -6 -6 -43 -27 -95 -54 -22 -12
-42 -24 -45 -27 -3 -3 -12 -8 -20 -12 -8 -4 -37 -20 -65 -37 -27 -16 -84 -49
-125 -72 -41 -23 -76 -45 -78 -50 -2 -4 -7 -8 -12 -8 -4 0 -52 -25 -106 -56
-55 -32 -135 -77 -179 -102 -44 -25 -83 -50 -86 -55 -3 -5 -10 -9 -15 -9 -5 0
-14 -3 -20 -5 -9 -3 -232 118 -344 187 -45 29 -362 210 -365 210 -3 0 -29 16
-59 35 -30 19 -58 35 -61 35 -4 0 -26 14 -50 30 -24 17 -46 30 -50 30 -10 0
-170 94 -173 102 -2 5 -8 8 -13 8 -5 0 -74 37 -152 83 -78 46 -149 86 -157 90
-8 4 -28 16 -45 26 -16 11 -46 28 -65 39 -43 24 -39 21 -385 222 -154 89 -298
172 -320 185 -35 20 -175 101 -340 197 -27 16 -58 32 -67 35 -17 5 -18 87 -18
1539 l0 1534 40 25 c22 14 42 25 44 25 2 0 47 24 100 54 53 30 96 51 96 48 0
-4 4 -2 8 3 6 9 51 34 147 84 16 9 32 18 35 21 3 3 23 14 45 26 71 37 208 111
300 163 50 28 95 51 102 51 6 0 13 4 15 8 2 6 242 139 468 260 47 25 120 66
230 127 36 20 77 42 93 48 15 6 27 15 27 19 0 4 4 8 10 8 11 0 300 157 314
171 6 5 18 9 28 9 10 0 18 4 18 9 0 5 15 14 33 22 17 7 34 15 37 18 3 4 25 17
50 29 25 13 65 35 90 49 25 14 79 43 120 65 41 23 95 52 120 66 25 14 72 40
106 57 l61 33 109 -65 c60 -36 129 -76 154 -89 25 -14 61 -34 80 -46 19 -11
54 -31 77 -44 23 -13 92 -53 153 -89 61 -36 113 -65 116 -65 2 0 21 -11 42
-23 20 -13 51 -32 67 -43 17 -10 32 -19 35 -19 3 0 48 -26 100 -56 116 -69
279 -163 340 -197 25 -14 57 -33 72 -43 14 -11 29 -19 32 -19 4 0 40 -20 80
-45 41 -25 86 -49 100 -55 14 -5 26 -14 26 -20 0 -5 7 -10 15 -10 9 0 28 -9
43 -19 23 -16 593 -346 672 -389 14 -7 39 -22 55 -32 17 -10 41 -25 55 -33 14
-7 48 -26 75 -42 28 -15 57 -33 65 -41 13 -11 15 -91 15 -608 l-1 -596 388 0
388 0 -2 826 c-3 723 -5 828 -18 835 -8 5 -55 31 -103 59 -49 27 -91 50 -93
50 -3 0 -10 5 -17 11 -7 6 -37 25 -68 42 -53 30 -181 103 -259 148 -19 12
-129 75 -245 141 -115 66 -221 128 -235 136 -14 9 -38 24 -55 32 -16 9 -59 34
-95 55 -36 20 -78 45 -95 55 -16 9 -118 68 -225 130 -209 121 -242 140 -292
169 -18 10 -166 95 -328 188 -162 94 -311 180 -330 190 -19 11 -177 102 -350
203 -173 100 -337 195 -365 210 -102 57 -115 65 -115 73 0 4 -9 7 -19 7 -11 0
-23 5 -26 10 -8 13 -13 12 -60 -13z"/>
<path d="M3925 6099 c-16 -10 -36 -23 -42 -29 -7 -6 -13 -8 -13 -5 0 4 -12 -2
-27 -13 -16 -10 -35 -22 -43 -26 -8 -4 -24 -12 -35 -19 -11 -7 -38 -23 -60
-35 -22 -12 -53 -31 -70 -42 -16 -11 -37 -23 -45 -27 -16 -7 -378 -215 -417
-239 -13 -8 -24 -14 -25 -13 -2 1 -29 -14 -60 -35 -31 -20 -62 -36 -68 -36 -5
0 -10 -4 -10 -10 0 -5 -4 -10 -9 -10 -7 0 -195 -105 -251 -140 -8 -5 -49 -28
-90 -52 -41 -23 -88 -50 -105 -60 -16 -10 -41 -24 -55 -30 -14 -7 -27 -15 -30
-18 -3 -3 -52 -33 -109 -65 -57 -33 -115 -67 -130 -75 -14 -9 -57 -33 -96 -55
-38 -21 -73 -44 -77 -49 -4 -6 -8 -169 -8 -363 l0 -352 389 1 388 0 0 128 c0
124 7 160 33 160 13 0 205 112 208 122 2 4 12 8 22 8 9 0 23 7 30 15 7 8 16
15 20 15 4 0 65 34 135 75 69 41 129 75 131 75 3 0 28 15 57 33 29 18 86 52
127 75 41 24 82 47 90 52 8 5 75 43 148 85 l132 76 33 -18 c17 -10 34 -21 37
-24 3 -3 20 -12 38 -20 17 -8 32 -17 32 -21 0 -5 4 -8 9 -8 5 0 49 -23 98 -51
48 -29 106 -62 128 -74 75 -43 220 -128 250 -147 17 -10 42 -24 58 -30 15 -7
27 -16 27 -20 0 -4 5 -8 10 -8 9 0 119 -61 235 -131 17 -10 47 -27 67 -38 21
-11 54 -31 75 -44 l38 -24 -1 -131 0 -131 388 1 388 0 0 357 0 358 -22 11
c-13 7 -30 16 -38 22 -8 5 -51 30 -95 56 -90 52 -98 57 -250 144 -60 34 -123
71 -140 81 -16 10 -36 22 -43 25 -12 6 -106 60 -357 206 -27 16 -61 34 -75 41
-14 6 -31 17 -38 24 -7 7 -20 13 -28 13 -8 0 -14 5 -14 10 0 6 -4 10 -10 10
-5 0 -44 20 -86 45 -41 25 -80 45 -85 45 -5 0 -9 4 -9 9 0 5 -10 13 -22 17
-13 3 -34 14 -48 24 -14 9 -50 30 -80 46 -30 16 -57 32 -60 35 -3 3 -36 23
-75 44 -38 21 -87 49 -107 62 -21 12 -42 23 -48 23 -5 0 -10 3 -10 8 0 4 -10
12 -23 17 -12 6 -51 27 -87 47 l-65 36 -30 -19z"/>
<path d="M2054 3521 c-10 -10 -4 -721 6 -721 6 0 36 -16 66 -35 30 -19 56 -35
59 -35 5 0 28 -13 97 -57 21 -12 40 -23 42 -23 3 0 96 -53 208 -118 112 -65
223 -130 248 -143 24 -13 67 -39 94 -56 28 -18 54 -33 58 -33 4 0 32 -16 62
-35 30 -19 60 -35 66 -35 5 0 10 -5 10 -11 0 -5 4 -8 9 -4 5 3 12 1 15 -4 3
-5 52 -35 108 -67 57 -31 111 -64 121 -72 9 -8 17 -12 17 -7 0 4 6 3 13 -3 6
-5 107 -65 222 -131 116 -67 217 -126 225 -131 102 -63 164 -92 179 -83 9 5
77 45 151 88 74 43 149 86 165 97 17 10 37 21 45 25 8 4 47 26 85 48 39 23 90
53 115 67 25 14 149 85 275 158 127 73 244 141 260 150 17 10 59 34 95 55 36
21 81 46 100 57 19 11 60 35 90 53 116 69 146 86 173 98 15 6 27 15 27 19 0 4
4 8 8 8 5 0 74 37 153 83 l144 83 0 359 0 359 -385 0 -385 0 -2 -120 c-1 -65
-2 -126 -2 -135 -1 -8 -16 -23 -33 -32 -18 -9 -40 -21 -48 -26 -8 -6 -55 -33
-105 -61 -49 -28 -97 -55 -105 -60 -8 -5 -37 -22 -65 -38 -27 -15 -174 -100
-325 -187 -151 -87 -287 -165 -302 -173 -15 -7 -30 -18 -33 -23 -4 -5 -11 -7
-16 -4 -5 4 -9 2 -9 -4 0 -14 -88 -54 -106 -47 -8 3 -48 26 -89 51 -41 25 -79
45 -84 45 -5 0 -11 3 -13 8 -1 4 -16 14 -33 23 -34 18 -355 203 -400 230 -16
11 -36 22 -43 25 -8 4 -80 45 -160 92 -144 83 -185 106 -233 134 -13 7 -26 16
-29 19 -3 3 -12 8 -20 11 -12 4 -14 30 -15 138 l0 134 -383 0 c-211 1 -386 -1
-388 -3z"/>
</g>
</svg>
